<?xml version="1.0" standalone="no"?>
<!DOCTYPE svg PUBLIC "-//W3C//DTD SVG 1.1//EN" "http://www.w3.org/Graphics/SVG/1.1/DTD/svg11.dtd">
<svg version="1.1" width="900" height="126" onload="init(evt)" viewBox="0 0 900 126" xmlns="http://www.w3.org/2000/svg" >
<text text-anchor="left" x="20" y="14" font-size="11" font-family="Verdana" fill="rgb(0,0,0)" >Event Time Chart</text>
<line x1="10" y1="41" x2="10" y2="126" stroke="rgb(200,200,200)" stroke-width="1" />
<line x1="24" y1="43" x2="24" y2="126" stroke="rgb(235,235,235)" stroke-width="1" />
<line x1="38" y1="43" x2="38" y2="126" stroke="rgb(235,235,235)" stroke-width="1" />
<line x1="52" y1="43" x2="52" y2="126" stroke="rgb(235,235,235)" stroke-width="1" />
<line x1="66" y1="43" x2="66" y2="126" stroke="rgb(235,235,235)" stroke-width="1" />
<line x1="80" y1="43" x2="80" y2="126" stroke="rgb(235,235,235)" stroke-width="1" />
<line x1="94" y1="43" x2="94" y2="126" stroke="rgb(235,235,235)" stroke-width="1" />
<line x1="108" y1="43" x2="108" y2="126" stroke="rgb(235,235,235)" stroke-width="1" />
<line x1="122" y1="43" x2="122" y2="126" stroke="rgb(235,235,235)" stroke-width="1" />
<line x1="136" y1="43" x2="136" y2="126" stroke="rgb(235,235,235)" stroke-width="1" />
<text text-anchor="left" x="4" y="36" font-size="8" font-family="Verdana" fill="rgb(40,40,40)" >0s</text>
<line x1="150" y1="41" x2="150" y2="126" stroke="rgb(225,225,225)" stroke-width="1" />
<line x1="164" y1="43" x2="164" y2="126" stroke="rgb(235,235,235)" stroke-width="1" />
<line x1="178" y1="43" x2="178" y2="126" stroke="rgb(235,235,235)" stroke-width="1" />
<line x1="192" y1="43" x2="192" y2="126" stroke="rgb(235,235,235)" stroke-width="1" />
<line x1="206" y1="43" x2="206" y2="126" stroke="rgb(235,235,235)" stroke-width="1" />
<line x1="220" y1="43" x2="220" y2="126" stroke="rgb(235,235,235)" stroke-width="1" />
<line x1="234" y1="43" x2="234" y2="126" stroke="rgb(235,235,235)" stroke-width="1" />
<line x1="248" y1="43" x2="248" y2="126" stroke="rgb(235,235,235)" stroke-width="1" />
<line x1="262" y1="43" x2="262" y2="126" stroke="rgb(235,235,235)" stroke-width="1" />
<line x1="276" y1="43" x2="276" y2="126" stroke="rgb(235,235,235)" stroke-width="1" />
<text text-anchor="left" x="144" y="36" font-size="8" font-family="Verdana" fill="rgb(40,40,40)" >1s</text>
<line x1="290" y1="41" x2="290" y2="126" stroke="rgb(225,225,225)" stroke-width="1" />
<line x1="304" y1="43" x2="304" y2="126" stroke="rgb(235,235,235)" stroke-width="1" />
<line x1="318" y1="43" x2="318" y2="126" stroke="rgb(235,235,235)" stroke-width="1" />
<line x1="332" y1="43" x2="332" y2="126" stroke="rgb(235,235,235)" stroke-width="1" />
<line x1="346" y1="43" x2="346" y2="126" stroke="rgb(235,235,235)" stroke-width="1" />
<line x1="360" y1="43" x2="360" y2="126" stroke="rgb(235,235,235)" stroke-width="1" />
<line x1="374" y1="43" x2="374" y2="126" stroke="rgb(235,235,235)" stroke-width="1" />
<line x1="388" y1="43" x2="388" y2="126" stroke="rgb(235,235,235)" stroke-width="1" />
<line x1="402" y1="43" x2="402" y2="126" stroke="rgb(235,235,235)" stroke-width="1" />
<line x1="416" y1="43" x2="416" y2="126" stroke="rgb(235,235,235)" stroke-width="1" />
<text text-anchor="left" x="284" y="36" font-size="8" font-family="Verdana" fill="rgb(40,40,40)" >2s</text>
<line x1="430" y1="41" x2="430" y2="126" stroke="rgb(225,225,225)" stroke-width="1" />
<line x1="444" y1="43" x2="444" y2="126" stroke="rgb(235,235,235)" stroke-width="1" />
<line x1="458" y1="43" x2="458" y2="126" stroke="rgb(235,235,235)" stroke-width="1" />
<line x1="472" y1="43" x2="472" y2="126" stroke="rgb(235,235,235)" stroke-width="1" />
<line x1="486" y1="43" x2="486" y2="126" stroke="rgb(235,235,235)" stroke-width="1" />
<line x1="500" y1="43" x2="500" y2="126" stroke="rgb(235,235,235)" stroke-width="1" />
<line x1="514" y1="43" x2="514" y2="126" stroke="rgb(235,235,235)" stroke-width="1" />
<line x1="528" y1="43" x2="528" y2="126" stroke="rgb(235,235,235)" stroke-width="1" />
<line x1="542" y1="43" x2="542" y2="126" stroke="rgb(235,235,235)" stroke-width="1" />
<line x1="556" y1="43" x2="556" y2="126" stroke="rgb(235,235,235)" stroke-width="1" />
<text text-anchor="left" x="424" y="36" font-size="8" font-family="Verdana" fill="rgb(40,40,40)" >3s</text>
<line x1="570" y1="41" x2="570" y2="126" stroke="rgb(225,225,225)" stroke-width="1" />
<line x1="584" y1="43" x2="584" y2="126" stroke="rgb(235,235,235)" stroke-width="1" />
<line x1="598" y1="43" x2="598" y2="126" stroke="rgb(235,235,235)" stroke-width="1" />
<line x1="612" y1="43" x2="612" y2="126" stroke="rgb(235,235,235)" stroke-width="1" />
<line x1="626" y1="43" x2="626" y2="126" stroke="rgb(235,235,235)" stroke-width="1" />
<line x1="640" y1="43" x2="640" y2="126" stroke="rgb(235,235,235)" stroke-width="1" />
<line x1="654" y1="43" x2="654" y2="126" stroke="rgb(235,235,235)" stroke-width="1" />
<line x1="668" y1="43" x2="668" y2="126" stroke="rgb(235,235,235)" stroke-width="1" />
<line x1="682" y1="43" x2="682" y2="126" stroke="rgb(235,235,235)" stroke-width="1" />
<line x1="696" y1="43" x2="696" y2="126" stroke="rgb(235,235,235)" stroke-width="1" />
<text text-anchor="left" x="564" y="36" font-size="8" font-family="Verdana" fill="rgb(40,40,40)" >4s</text>
<line x1="710" y1="41" x2="710" y2="126" stroke="rgb(200,200,200)" stroke-width="1" />
<line x1="724" y1="43" x2="724" y2="126" stroke="rgb(235,235,235)" stroke-width="1" />
<line x1="738" y1="43" x2="738" y2="126" stroke="rgb(235,235,235)" stroke-width="1" />
<line x1="752" y1="43" x2="752" y2="126" stroke="rgb(235,235,235)" stroke-width="1" />
<line x1="766" y1="43" x2="766" y2="126" stroke="rgb(235,235,235)" stroke-width="1" />
<line x1="780" y1="43" x2="780" y2="126" stroke="rgb(235,235,235)" stroke-width="1" />
<line x1="794" y1="43" x2="794" y2="126" stroke="rgb(235,235,235)" stroke-width="1" />
<line x1="808" y1="43" x2="808" y2="126" stroke="rgb(235,235,235)" stroke-width="1" />
<line x1="822" y1="43" x2="822" y2="126" stroke="rgb(235,235,235)" stroke-width="1" />
<line x1="836" y1="43" x2="836" y2="126" stroke="rgb(235,235,235)" stroke-width="1" />
<text text-anchor="left" x="704" y="36" font-size="8" font-family="Verdana" fill="rgb(40,40,40)" >5s</text>
<line x1="850" y1="41" x2="850" y2="126" stroke="rgb(225,225,225)" stroke-width="1" />
<line x1="864" y1="43" x2="864" y2="126" stroke="rgb(235,235,235)" stroke-width="1" />
<line x1="878" y1="43" x2="878" y2="126" stroke="rgb(235,235,235)" stroke-width="1" />
<line x1="892" y1="43" x2="892" y2="126" stroke="rgb(235,235,235)" stroke-width="1" />
<line x1="906" y1="43" x2="906" y2="126" stroke="rgb(235,235,235)" stroke-width="1" />
<line x1="920" y1="43" x2="920" y2="126" stroke="rgb(235,235,235)" stroke-width="1" />
<line x1="934" y1="43" x2="934" y2="126" stroke="rgb(235,235,235)" stroke-width="1" />
<line x1="948" y1="43" x2="948" y2="126" stroke="rgb(235,235,235)" stroke-width="1" />
<line x1="962" y1="43" x2="962" y2="126" stroke="rgb(235,235,235)" stroke-width="1" />
<line x1="976" y1="43" x2="976" y2="126" stroke="rgb(235,235,235)" stroke-width="1" />
<text text-anchor="left" x="844" y="36" font-size="8" font-family="Verdana" fill="rgb(40,40,40)" >6s</text>
<rect x="10" y="46" width="705" height="13" fill="rgb(235,235,235)" stroke="rgb(160,160,160)" rx="4" ry="4" />
<text text-anchor="left" x="15" y="56" font-size="8" font-family="Verdana" fill="rgb(40,40,40)" >sleeptest.sh->ksh93->date</text>
<rect x="11" y="59" width="140" height="13" fill="rgb(235,235,235)" stroke="rgb(160,160,160)" rx="4" ry="4" />
<text text-anchor="left" x="16" y="69" font-size="8" font-family="Verdana" fill="rgb(40,40,40)" >sleep</text>
<rect x="151" y="72" width="141" height="13" fill="rgb(235,235,235)" stroke="rgb(160,160,160)" rx="4" ry="4" />
<text text-anchor="left" x="156" y="82" font-size="8" font-family="Verdana" fill="rgb(40,40,40)" >sleep</text>
<rect x="292" y="85" width="140" height="13" fill="rgb(235,235,235)" stroke="rgb(160,160,160)" rx="4" ry="4" />
<text text-anchor="left" x="297" y="95" font-size="8" font-family="Verdana" fill="rgb(40,40,40)" >sleep</text>
<rect x="433" y="98" width="140" height="13" fill="rgb(235,235,235)" stroke="rgb(160,160,160)" rx="4" ry="4" />
<text text-anchor="left" x="438" y="108" font-size="8" font-family="Verdana" fill="rgb(40,40,40)" >sleep</text>
<rect x="573" y="111" width="141" height="13" fill="rgb(235,235,235)" stroke="rgb(160,160,160)" rx="4" ry="4" />
<text text-anchor="left" x="578" y="121" font-size="8" font-family="Verdana" fill="rgb(40,40,40)" >sleep</text>
<line x1="5" y1="52.5" x2="9" y2="52.5" stroke="rgb(180,180,240)" stroke-width="1" />
<line x1="5" y1="65.5" x2="10" y2="65.5" stroke="rgb(180,180,240)" stroke-width="1" />
<line x1="5" y1="52.5" x2="5" y2="65.5" stroke="rgb(180,180,240)" stroke-width="1" />
<line x1="5" y1="52.5" x2="9" y2="52.5" stroke="rgb(180,180,240)" stroke-width="1" />
<line x1="5" y1="78.5" x2="150" y2="78.5" stroke="rgb(180,180,240)" stroke-width="1" />
<line x1="5" y1="52.5" x2="5" y2="78.5" stroke="rgb(180,180,240)" stroke-width="1" />
<line x1="5" y1="52.5" x2="9" y2="52.5" stroke="rgb(180,180,240)" stroke-width="1" />
<line x1="5" y1="91.5" x2="291" y2="91.5" stroke="rgb(180,180,240)" stroke-width="1" />
<line x1="5" y1="52.5" x2="5" y2="91.5" stroke="rgb(180,180,240)" stroke-width="1" />
<line x1="5" y1="52.5" x2="9" y2="52.5" stroke="rgb(180,180,240)" stroke-width="1" />
<line x1="5" y1="104.5" x2="432" y2="104.5" stroke="rgb(180,180,240)" stroke-width="1" />
<line x1="5" y1="52.5" x2="5" y2="104.5" stroke="rgb(180,180,240)" stroke-width="1" />
<line x1="5" y1="52.5" x2="9" y2="52.5" stroke="rgb(180,180,240)" stroke-width="1" />
<line x1="5" y1="117.5" x2="572" y2="117.5" stroke="rgb(180,180,240)" stroke-width="1" />
<line x1="5" y1="52.5" x2="5" y2="117.5" stroke="rgb(180,180,240)" stroke-width="1" />
</svg>
